<svg width="67" height="66" viewBox="0 0 67 66" fill="none" xmlns="http://www.w3.org/2000/svg">
<path d="M10.1464 31.0638L23.5557 44.5103C24.0672 45.0232 24.323 45.6419 24.323 46.3665C24.323 47.0916 24.0672 47.7106 23.5557 48.2235C23.0442 48.7359 22.4181 48.9921 21.6776 48.9921C20.937 48.9921 20.3113 48.7359 19.8003 48.2235L4.4597 32.8938C4.17776 32.6111 3.9794 32.3193 3.86461 32.0186C3.75035 31.7178 3.69322 31.3908 3.69322 31.0375C3.69322 30.6837 3.75035 30.3565 3.86461 30.0557C3.9794 29.7555 4.17776 29.4637 4.4597 29.1805L14.6428 18.9699L2.79345 7.0885C2.26448 6.55807 2 5.9258 2 5.19168C2 4.45809 2.26448 3.82608 2.79345 3.29565C3.32242 2.76522 3.95295 2.5 4.68504 2.5C5.4166 2.5 6.04686 2.76522 6.57583 3.29565L62.1174 58.9911C62.6464 59.5215 62.9108 60.1402 62.9108 60.8473C62.9108 61.5549 62.6464 62.1739 62.1174 62.7043C61.5884 63.2348 60.9582 63.5 60.2266 63.5C59.4945 63.5 58.864 63.2348 58.335 62.7043L18.4244 22.7628L10.1464 31.0638ZM52.0937 41.2743C51.5648 40.7439 51.3003 40.1119 51.3003 39.3783C51.3003 38.6447 51.5648 38.0127 52.0937 37.4823L58.5469 31.0105L45.1375 17.564C44.626 17.0516 44.3793 16.4329 44.3973 15.7078C44.4147 14.9827 44.6792 14.3639 45.1907 13.8515C45.7017 13.3386 46.3275 13.0821 47.068 13.0821C47.8086 13.0821 48.4346 13.3386 48.9461 13.8515L64.2335 29.1805C64.5155 29.4637 64.7138 29.7555 64.8286 30.0557C64.9429 30.3565 65 30.6837 65 31.0375C65 31.3908 64.9429 31.7178 64.8286 32.0186C64.7138 32.3193 64.5155 32.6111 64.2335 32.8938L55.796 41.3539C55.267 41.8843 54.65 42.1363 53.9449 42.1098C53.2397 42.0833 52.6227 41.8048 52.0937 41.2743Z" fill="url(#paint0_linear_300_20)" stroke="url(#paint1_linear_300_20)" stroke-width="4"/>
<defs>
<linearGradient id="paint0_linear_300_20" x1="25.5062" y1="13.3021" x2="64.3922" y2="13.518" gradientUnits="userSpaceOnUse">
<stop stop-color="#5FB7E9"/>
<stop offset="0.5" stop-color="#2E9BD9"/>
<stop offset="1" stop-color="#3C7CC7"/>
</linearGradient>
<linearGradient id="paint1_linear_300_20" x1="25.5062" y1="13.3021" x2="64.3922" y2="13.518" gradientUnits="userSpaceOnUse">
<stop stop-color="#5FB7E9"/>
<stop offset="0.5" stop-color="#2E9BD9"/>
<stop offset="1" stop-color="#3C7CC7"/>
</linearGradient>
</defs>
</svg>
