<svg width="97" height="96" viewBox="0 0 97 96" fill="none" xmlns="http://www.w3.org/2000/svg">
<g filter="url(#filter0_d_300_20)">
<path d="M25.1464 40.0638L38.5557 53.5103C39.0672 54.0232 39.323 54.6419 39.323 55.3665C39.323 56.0916 39.0672 56.7106 38.5557 57.2235C38.0442 57.7359 37.4181 57.9921 36.6776 57.9921C35.937 57.9921 35.3113 57.7359 34.8003 57.2235L19.4597 41.8938C19.1778 41.6111 18.9794 41.3193 18.8646 41.0186C18.7504 40.7178 18.6932 40.3908 18.6932 40.0375C18.6932 39.6837 18.7504 39.3565 18.8646 39.0557C18.9794 38.7555 19.1778 38.4637 19.4597 38.1805L29.6428 27.9699L17.7935 16.0885C17.2645 15.5581 17 14.9258 17 14.1917C17 13.4581 17.2645 12.8261 17.7935 12.2956C18.3224 11.7652 18.9529 11.5 19.685 11.5C20.4166 11.5 21.0469 11.7652 21.5758 12.2956L77.1174 67.9911C77.6464 68.5215 77.9108 69.1402 77.9108 69.8473C77.9108 70.5549 77.6464 71.1739 77.1174 71.7043C76.5884 72.2348 75.9582 72.5 75.2266 72.5C74.4945 72.5 73.864 72.2348 73.335 71.7043L33.4244 31.7628L25.1464 40.0638ZM67.0937 50.2743C66.5648 49.7439 66.3003 49.1119 66.3003 48.3783C66.3003 47.6447 66.5648 47.0127 67.0937 46.4823L73.5469 40.0105L60.1375 26.564C59.626 26.0516 59.3793 25.4329 59.3973 24.7078C59.4147 23.9827 59.6792 23.3639 60.1907 22.8515C60.7017 22.3386 61.3275 22.0821 62.068 22.0821C62.8086 22.0821 63.4346 22.3386 63.9461 22.8515L79.2335 38.1805C79.5155 38.4637 79.7138 38.7555 79.8286 39.0557C79.9429 39.3565 80 39.6837 80 40.0375C80 40.3908 79.9429 40.7178 79.8286 41.0186C79.7138 41.3193 79.5155 41.6111 79.2335 41.8938L70.796 50.3539C70.267 50.8843 69.65 51.1363 68.9449 51.1098C68.2397 51.0833 67.6227 50.8048 67.0937 50.2743Z" fill="url(#paint0_linear_300_20)"/>
<path d="M25.1464 40.0638L38.5557 53.5103C39.0672 54.0232 39.323 54.6419 39.323 55.3665C39.323 56.0916 39.0672 56.7106 38.5557 57.2235C38.0442 57.7359 37.4181 57.9921 36.6776 57.9921C35.937 57.9921 35.3113 57.7359 34.8003 57.2235L19.4597 41.8938C19.1778 41.6111 18.9794 41.3193 18.8646 41.0186C18.7504 40.7178 18.6932 40.3908 18.6932 40.0375C18.6932 39.6837 18.7504 39.3565 18.8646 39.0557C18.9794 38.7555 19.1778 38.4637 19.4597 38.1805L29.6428 27.9699L17.7935 16.0885C17.2645 15.5581 17 14.9258 17 14.1917C17 13.4581 17.2645 12.8261 17.7935 12.2956C18.3224 11.7652 18.9529 11.5 19.685 11.5C20.4166 11.5 21.0469 11.7652 21.5758 12.2956L77.1174 67.9911C77.6464 68.5215 77.9108 69.1402 77.9108 69.8473C77.9108 70.5549 77.6464 71.1739 77.1174 71.7043C76.5884 72.2348 75.9582 72.5 75.2266 72.5C74.4945 72.5 73.864 72.2348 73.335 71.7043L33.4244 31.7628L25.1464 40.0638ZM67.0937 50.2743C66.5648 49.7439 66.3003 49.1119 66.3003 48.3783C66.3003 47.6447 66.5648 47.0127 67.0937 46.4823L73.5469 40.0105L60.1375 26.564C59.626 26.0516 59.3793 25.4329 59.3973 24.7078C59.4147 23.9827 59.6792 23.3639 60.1907 22.8515C60.7017 22.3386 61.3275 22.0821 62.068 22.0821C62.8086 22.0821 63.4346 22.3386 63.9461 22.8515L79.2335 38.1805C79.5155 38.4637 79.7138 38.7555 79.8286 39.0557C79.9429 39.3565 80 39.6837 80 40.0375C80 40.3908 79.9429 40.7178 79.8286 41.0186C79.7138 41.3193 79.5155 41.6111 79.2335 41.8938L70.796 50.3539C70.267 50.8843 69.65 51.1363 68.9449 51.1098C68.2397 51.0833 67.6227 50.8048 67.0937 50.2743Z" stroke="url(#paint1_linear_300_20)" stroke-width="4"/>
</g>
<defs>
<filter id="filter0_d_300_20" x="0" y="0.5" width="97" height="95" filterUnits="userSpaceOnUse" color-interpolation-filters="sRGB">
<feFlood flood-opacity="0" result="BackgroundImageFix"/>
<feColorMatrix in="SourceAlpha" type="matrix" values="0 0 0 0 0 0 0 0 0 0 0 0 0 0 0 0 0 0 127 0" result="hardAlpha"/>
<feOffset dy="6"/>
<feGaussianBlur stdDeviation="7.5"/>
<feComposite in2="hardAlpha" operator="out"/>
<feColorMatrix type="matrix" values="0 0 0 0 0 0 0 0 0 0 0 0 0 0 0 0 0 0 0.25 0"/>
<feBlend mode="normal" in2="BackgroundImageFix" result="effect1_dropShadow_300_20"/>
<feBlend mode="normal" in="SourceGraphic" in2="effect1_dropShadow_300_20" result="shape"/>
</filter>
<linearGradient id="paint0_linear_300_20" x1="40.5062" y1="22.3021" x2="79.3922" y2="22.518" gradientUnits="userSpaceOnUse">
<stop stop-color="#5FB7E9"/>
<stop offset="0.5" stop-color="#2E9BD9"/>
<stop offset="1" stop-color="#3C7CC7"/>
</linearGradient>
<linearGradient id="paint1_linear_300_20" x1="40.5062" y1="22.3021" x2="79.3922" y2="22.518" gradientUnits="userSpaceOnUse">
<stop stop-color="#5FB7E9"/>
<stop offset="0.5" stop-color="#2E9BD9"/>
<stop offset="1" stop-color="#3C7CC7"/>
</linearGradient>
</defs>
</svg>
