<svg xmlns="http://www.w3.org/2000/svg" xmlns:xlink="http://www.w3.org/1999/xlink" width="300" zoomAndPan="magnify" viewBox="0 0 224.87999 225" height="300" preserveAspectRatio="xMidYMid meet" version="1.0"><defs><clipPath id="90068bdc89"><path d="M 26.824219 6 L 206 6 L 206 224.792969 L 26.824219 224.792969 Z M 26.824219 6 " clip-rule="nonzero"/></clipPath><clipPath id="b6e8bb6b57"><path d="M 14.394531 0.0585938 L 193 0.0585938 L 193 218.878906 L 14.394531 218.878906 Z M 14.394531 0.0585938 " clip-rule="nonzero"/></clipPath></defs><g clip-path="url(#90068bdc89)"><path fill="#073a4f" d="M 201.851562 49.890625 C 193.804688 24.191406 169.957031 6.628906 141.753906 6.367188 C 108.492188 6.0625 75.234375 6.277344 41.984375 6.261719 L 26.824219 6.261719 L 26.824219 224.867188 C 39.738281 212.320312 51.457031 201.226562 62.566406 189.59375 C 64.535156 187.523438 63.90625 182.6875 63.9375 179.125 C 64.070312 164.390625 63.996094 149.65625 63.996094 134.523438 L 64.320312 134.523438 L 64.320312 118.992188 C 64.277344 118.804688 64.25 118.617188 64.242188 118.449219 C 64.070312 89.328125 64.214844 60.207031 64.269531 31.101562 C 64.285156 26.757812 64.285156 22.414062 64.285156 16.929688 L 102.894531 16.929688 C 116.492188 16.914062 130.105469 16.417969 143.675781 16.976562 C 164.597656 17.835938 180.320312 27.851562 189.332031 46.765625 C 199.097656 67.289062 196.414062 87.023438 182.277344 104.765625 C 173.285156 116.046875 161.285156 122.296875 145.664062 123.652344 L 145.664062 30.636719 C 144.746094 30.214844 143.828125 29.804688 142.925781 29.386719 C 131.46875 41.253906 119.910156 53.015625 108.703125 65.109375 C 107 66.945312 106.339844 70.339844 106.296875 73.039062 C 106.046875 87.105469 106.183594 101.1875 106.125 115.265625 C 106.109375 117.871094 105.847656 120.484375 105.671875 123.734375 C 94.023438 123.734375 82.816406 123.859375 36.679688 123.59375 L 36.679688 134.535156 L 106.402344 134.535156 L 106.402344 205.167969 L 145.507812 166.0625 C 145.507812 150.976562 145.460938 145.644531 145.402344 140.308594 C 145.359375 135.746094 146.933594 134.539062 151.234375 133.238281 C 160.617188 130.414062 170.71875 127.878906 178.605469 122.421875 C 201.6875 106.457031 210.40625 77.1875 201.851562 49.890625 Z M 201.851562 49.890625 " fill-opacity="1" fill-rule="nonzero"/></g><g clip-path="url(#b6e8bb6b57)"><path fill="#ffffff" d="M 189.417969 43.980469 C 181.375 18.28125 157.527344 0.714844 129.324219 0.453125 C 96.0625 0.148438 62.800781 0.367188 29.554688 0.351562 L 14.394531 0.351562 L 14.394531 218.953125 C 27.304688 206.40625 39.027344 195.3125 50.136719 183.679688 C 52.105469 181.613281 51.476562 176.773438 51.507812 173.214844 C 51.636719 158.480469 51.566406 143.742188 51.566406 128.613281 L 51.886719 128.613281 L 51.886719 113.082031 C 51.84375 112.890625 51.816406 112.707031 51.8125 112.539062 C 51.636719 83.414062 51.785156 54.292969 51.839844 25.1875 C 51.855469 20.84375 51.855469 16.5 51.855469 11.019531 L 90.464844 11.019531 C 104.0625 11.003906 117.675781 10.507812 131.246094 11.0625 C 152.164062 11.921875 167.890625 21.9375 176.898438 40.855469 C 186.664062 61.375 183.980469 81.113281 169.84375 98.851562 C 160.851562 110.136719 148.855469 116.386719 133.234375 117.742188 L 133.234375 24.726562 C 132.3125 24.300781 131.398438 23.894531 130.496094 23.472656 C 119.039062 35.339844 107.480469 47.101562 96.273438 59.199219 C 94.570312 61.03125 93.910156 64.429688 93.867188 67.128906 C 93.617188 81.195312 93.753906 95.277344 93.691406 109.351562 C 93.675781 111.960938 93.414062 114.574219 93.242188 117.824219 C 81.59375 117.824219 70.386719 117.949219 24.246094 117.679688 L 24.246094 128.621094 L 93.972656 128.621094 L 93.972656 199.253906 L 133.074219 160.148438 C 133.074219 145.066406 133.03125 139.730469 132.972656 134.398438 C 132.929688 129.835938 134.5 128.628906 138.800781 127.328125 C 148.1875 124.5 158.289062 121.964844 166.175781 116.511719 C 189.257812 100.546875 197.976562 71.277344 189.417969 43.980469 Z M 189.417969 43.980469 " fill-opacity="1" fill-rule="nonzero"/></g></svg>