<svg xmlns="http://www.w3.org/2000/svg" xmlns:xlink="http://www.w3.org/1999/xlink" width="300" zoomAndPan="magnify" viewBox="0 0 224.87999 225" height="300" preserveAspectRatio="xMidYMid meet" version="1.0"><defs><g/></defs><g fill="#073a4f" fill-opacity="1"><g transform="translate(0.00000000000004261, 109.215078)"><g><path d="M 28.640625 -21.953125 C 28.640625 -19.960938 28.175781 -18.148438 27.25 -16.515625 C 26.332031 -14.878906 24.945312 -13.570312 23.09375 -12.59375 C 21.25 -11.613281 18.988281 -11.125 16.3125 -11.125 L 11.765625 -11.125 L 11.765625 0 L 2.609375 0 L 2.609375 -32.9375 L 16.3125 -32.9375 C 18.957031 -32.9375 21.203125 -32.46875 23.046875 -31.53125 C 24.898438 -30.601562 26.296875 -29.3125 27.234375 -27.65625 C 28.171875 -26.007812 28.640625 -24.109375 28.640625 -21.953125 Z M 15.421875 -18.40625 C 18.003906 -18.40625 19.296875 -19.585938 19.296875 -21.953125 C 19.296875 -24.359375 18.003906 -25.5625 15.421875 -25.5625 L 11.765625 -25.5625 L 11.765625 -18.40625 Z M 15.421875 -18.40625 "/></g></g></g><g fill="#073a4f" fill-opacity="1"><g transform="translate(29.705954, 109.215078)"><g><path d="M 1.125 -13.125 C 1.125 -15.832031 1.613281 -18.195312 2.59375 -20.21875 C 3.570312 -22.25 4.910156 -23.804688 6.609375 -24.890625 C 8.304688 -25.984375 10.195312 -26.53125 12.28125 -26.53125 C 14.09375 -26.53125 15.648438 -26.171875 16.953125 -25.453125 C 18.265625 -24.742188 19.28125 -23.78125 20 -22.5625 L 20 -26.203125 L 29.15625 -26.203125 L 29.15625 0 L 20 0 L 20 -3.640625 C 19.28125 -2.429688 18.257812 -1.46875 16.9375 -0.75 C 15.613281 -0.03125 14.0625 0.328125 12.28125 0.328125 C 10.195312 0.328125 8.304688 -0.210938 6.609375 -1.296875 C 4.910156 -2.390625 3.570312 -3.957031 2.59375 -6 C 1.613281 -8.039062 1.125 -10.414062 1.125 -13.125 Z M 20 -13.125 C 20 -14.8125 19.535156 -16.132812 18.609375 -17.09375 C 17.691406 -18.0625 16.566406 -18.546875 15.234375 -18.546875 C 13.859375 -18.546875 12.71875 -18.070312 11.8125 -17.125 C 10.914062 -16.175781 10.46875 -14.84375 10.46875 -13.125 C 10.46875 -11.445312 10.914062 -10.113281 11.8125 -9.125 C 12.71875 -8.144531 13.859375 -7.65625 15.234375 -7.65625 C 16.566406 -7.65625 17.691406 -8.140625 18.609375 -9.109375 C 19.535156 -10.078125 20 -11.414062 20 -13.125 Z M 20 -13.125 "/></g></g></g><g fill="#073a4f" fill-opacity="1"><g transform="translate(61.467042, 109.215078)"><g><path d="M 29.4375 -26.203125 L 29.4375 0 L 20.234375 0 L 20.234375 -3.734375 C 19.453125 -2.554688 18.375 -1.597656 17 -0.859375 C 15.632812 -0.128906 14.0625 0.234375 12.28125 0.234375 C 9.226562 0.234375 6.820312 -0.769531 5.0625 -2.78125 C 3.300781 -4.789062 2.421875 -7.523438 2.421875 -10.984375 L 2.421875 -26.203125 L 11.546875 -26.203125 L 11.546875 -12.140625 C 11.546875 -10.648438 11.941406 -9.472656 12.734375 -8.609375 C 13.523438 -7.753906 14.578125 -7.328125 15.890625 -7.328125 C 17.222656 -7.328125 18.28125 -7.753906 19.0625 -8.609375 C 19.84375 -9.472656 20.234375 -10.648438 20.234375 -12.140625 L 20.234375 -26.203125 Z M 29.4375 -26.203125 "/></g></g></g><g fill="#073a4f" fill-opacity="1"><g transform="translate(93.508373, 109.215078)"><g><path d="M 11.765625 -34.578125 L 11.765625 0 L 2.609375 0 L 2.609375 -34.578125 Z M 11.765625 -34.578125 "/></g></g></g><g fill="#073a4f" fill-opacity="1"><g transform="translate(107.894278, 109.215078)"><g><path d="M 14.8125 0.328125 C 12.195312 0.328125 9.851562 -0.210938 7.78125 -1.296875 C 5.707031 -2.390625 4.078125 -3.945312 2.890625 -5.96875 C 1.710938 -8 1.125 -10.382812 1.125 -13.125 C 1.125 -15.832031 1.722656 -18.195312 2.921875 -20.21875 C 4.117188 -22.25 5.753906 -23.804688 7.828125 -24.890625 C 9.898438 -25.984375 12.242188 -26.53125 14.859375 -26.53125 C 17.472656 -26.53125 19.816406 -25.984375 21.890625 -24.890625 C 23.960938 -23.804688 25.597656 -22.25 26.796875 -20.21875 C 27.992188 -18.195312 28.59375 -15.832031 28.59375 -13.125 C 28.59375 -10.414062 27.992188 -8.039062 26.796875 -6 C 25.597656 -3.957031 23.953125 -2.390625 21.859375 -1.296875 C 19.773438 -0.210938 17.425781 0.328125 14.8125 0.328125 Z M 14.8125 -7.609375 C 16.082031 -7.609375 17.144531 -8.082031 18 -9.03125 C 18.863281 -9.988281 19.296875 -11.351562 19.296875 -13.125 C 19.296875 -14.90625 18.863281 -16.257812 18 -17.1875 C 17.144531 -18.125 16.097656 -18.59375 14.859375 -18.59375 C 13.609375 -18.59375 12.5625 -18.125 11.71875 -17.1875 C 10.882812 -16.257812 10.46875 -14.90625 10.46875 -13.125 C 10.46875 -11.320312 10.867188 -9.953125 11.671875 -9.015625 C 12.484375 -8.078125 13.53125 -7.609375 14.8125 -7.609375 Z M 14.8125 -7.609375 "/></g></g></g><g fill="#073a4f" fill-opacity="1"><g transform="translate(0.00000000000004261, 148.634195)"><g><path d="M 32.09375 -32.9375 L 32.09375 0 L 22.9375 0 L 22.9375 -13.21875 L 11.765625 -13.21875 L 11.765625 0 L 2.609375 0 L 2.609375 -32.9375 L 11.765625 -32.9375 L 11.765625 -20.5625 L 22.9375 -20.5625 L 22.9375 -32.9375 Z M 32.09375 -32.9375 "/></g></g></g><g fill="#073a4f" fill-opacity="1"><g transform="translate(34.703651, 148.634195)"><g><path d="M 27.65625 -13.40625 C 27.65625 -12.6875 27.609375 -11.972656 27.515625 -11.265625 L 10.1875 -11.265625 C 10.28125 -9.828125 10.675781 -8.757812 11.375 -8.0625 C 12.070312 -7.363281 12.96875 -7.015625 14.0625 -7.015625 C 15.59375 -7.015625 16.679688 -7.695312 17.328125 -9.0625 L 27.09375 -9.0625 C 26.6875 -7.257812 25.898438 -5.648438 24.734375 -4.234375 C 23.566406 -2.816406 22.09375 -1.703125 20.3125 -0.890625 C 18.539062 -0.078125 16.582031 0.328125 14.4375 0.328125 C 11.851562 0.328125 9.554688 -0.210938 7.546875 -1.296875 C 5.535156 -2.390625 3.960938 -3.945312 2.828125 -5.96875 C 1.691406 -8 1.125 -10.382812 1.125 -13.125 C 1.125 -15.863281 1.679688 -18.238281 2.796875 -20.25 C 3.921875 -22.257812 5.488281 -23.804688 7.5 -24.890625 C 9.507812 -25.984375 11.820312 -26.53125 14.4375 -26.53125 C 17.019531 -26.53125 19.304688 -26 21.296875 -24.9375 C 23.296875 -23.882812 24.851562 -22.367188 25.96875 -20.390625 C 27.09375 -18.410156 27.65625 -16.082031 27.65625 -13.40625 Z M 18.3125 -15.703125 C 18.3125 -16.816406 17.9375 -17.691406 17.1875 -18.328125 C 16.445312 -18.972656 15.515625 -19.296875 14.390625 -19.296875 C 13.265625 -19.296875 12.34375 -18.988281 11.625 -18.375 C 10.914062 -17.769531 10.453125 -16.878906 10.234375 -15.703125 Z M 18.3125 -15.703125 "/></g></g></g><g fill="#073a4f" fill-opacity="1"><g transform="translate(63.475461, 148.634195)"><g><path d="M 19.765625 -26.4375 C 22.785156 -26.4375 25.179688 -25.429688 26.953125 -23.421875 C 28.734375 -21.421875 29.625 -18.707031 29.625 -15.28125 L 29.625 0 L 20.46875 0 L 20.46875 -14.0625 C 20.46875 -15.5625 20.078125 -16.738281 19.296875 -17.59375 C 18.515625 -18.445312 17.472656 -18.875 16.171875 -18.875 C 14.796875 -18.875 13.71875 -18.445312 12.9375 -17.59375 C 12.15625 -16.738281 11.765625 -15.5625 11.765625 -14.0625 L 11.765625 0 L 2.609375 0 L 2.609375 -26.203125 L 11.765625 -26.203125 L 11.765625 -22.46875 C 12.578125 -23.65625 13.664062 -24.613281 15.03125 -25.34375 C 16.40625 -26.070312 17.984375 -26.4375 19.765625 -26.4375 Z M 19.765625 -26.4375 "/></g></g></g><g fill="#073a4f" fill-opacity="1"><g transform="translate(95.516793, 148.634195)"><g><path d="M 11.765625 -21.578125 C 12.796875 -23.078125 14.039062 -24.257812 15.5 -25.125 C 16.96875 -26 18.546875 -26.4375 20.234375 -26.4375 L 20.234375 -16.671875 L 17.65625 -16.671875 C 15.664062 -16.671875 14.1875 -16.28125 13.21875 -15.5 C 12.25 -14.726562 11.765625 -13.378906 11.765625 -11.453125 L 11.765625 0 L 2.609375 0 L 2.609375 -26.203125 L 11.765625 -26.203125 Z M 11.765625 -21.578125 "/></g></g></g><g fill="#073a4f" fill-opacity="1"><g transform="translate(116.395026, 148.634195)"><g><path d="M 7.234375 -28.640625 C 5.617188 -28.640625 4.320312 -29.082031 3.34375 -29.96875 C 2.363281 -30.851562 1.875 -31.96875 1.875 -33.3125 C 1.875 -34.675781 2.363281 -35.8125 3.34375 -36.71875 C 4.320312 -37.625 5.617188 -38.078125 7.234375 -38.078125 C 8.828125 -38.078125 10.113281 -37.625 11.09375 -36.71875 C 12.070312 -35.8125 12.5625 -34.675781 12.5625 -33.3125 C 12.5625 -31.96875 12.070312 -30.851562 11.09375 -29.96875 C 10.113281 -29.082031 8.828125 -28.640625 7.234375 -28.640625 Z M 11.765625 -26.203125 L 11.765625 0 L 2.609375 0 L 2.609375 -26.203125 Z M 11.765625 -26.203125 "/></g></g></g><g fill="#073a4f" fill-opacity="1"><g transform="translate(130.780931, 148.634195)"><g><path d="M 1.125 -12.984375 C 1.125 -15.566406 1.660156 -17.878906 2.734375 -19.921875 C 3.804688 -21.960938 5.238281 -23.554688 7.03125 -24.703125 C 8.820312 -25.859375 10.773438 -26.4375 12.890625 -26.4375 C 15.941406 -26.4375 18.3125 -25.472656 20 -23.546875 L 20 -26.203125 L 29.15625 -26.203125 L 29.15625 12.515625 L 20 12.515625 L 20 -3.078125 C 18.0625 -0.804688 15.675781 0.328125 12.84375 0.328125 C 10.726562 0.328125 8.773438 -0.226562 6.984375 -1.34375 C 5.191406 -2.46875 3.765625 -4.039062 2.703125 -6.0625 C 1.648438 -8.09375 1.125 -10.398438 1.125 -12.984375 Z M 20 -13.125 C 20 -14.875 19.503906 -16.207031 18.515625 -17.125 C 17.535156 -18.039062 16.441406 -18.5 15.234375 -18.5 C 14.015625 -18.5 12.914062 -18.023438 11.9375 -17.078125 C 10.957031 -16.128906 10.46875 -14.765625 10.46875 -12.984375 C 10.46875 -11.210938 10.945312 -9.878906 11.90625 -8.984375 C 12.875 -8.097656 13.984375 -7.65625 15.234375 -7.65625 C 16.441406 -7.65625 17.535156 -8.125 18.515625 -9.0625 C 19.503906 -10 20 -11.351562 20 -13.125 Z M 20 -13.125 "/></g></g></g><g fill="#073a4f" fill-opacity="1"><g transform="translate(162.542019, 148.634195)"><g><path d="M 29.4375 -26.203125 L 29.4375 0 L 20.234375 0 L 20.234375 -3.734375 C 19.453125 -2.554688 18.375 -1.597656 17 -0.859375 C 15.632812 -0.128906 14.0625 0.234375 12.28125 0.234375 C 9.226562 0.234375 6.820312 -0.769531 5.0625 -2.78125 C 3.300781 -4.789062 2.421875 -7.523438 2.421875 -10.984375 L 2.421875 -26.203125 L 11.546875 -26.203125 L 11.546875 -12.140625 C 11.546875 -10.648438 11.941406 -9.472656 12.734375 -8.609375 C 13.523438 -7.753906 14.578125 -7.328125 15.890625 -7.328125 C 17.222656 -7.328125 18.28125 -7.753906 19.0625 -8.609375 C 19.84375 -9.472656 20.234375 -10.648438 20.234375 -12.140625 L 20.234375 -26.203125 Z M 29.4375 -26.203125 "/></g></g></g><g fill="#073a4f" fill-opacity="1"><g transform="translate(194.58335, 148.634195)"><g><path d="M 27.65625 -13.40625 C 27.65625 -12.6875 27.609375 -11.972656 27.515625 -11.265625 L 10.1875 -11.265625 C 10.28125 -9.828125 10.675781 -8.757812 11.375 -8.0625 C 12.070312 -7.363281 12.96875 -7.015625 14.0625 -7.015625 C 15.59375 -7.015625 16.679688 -7.695312 17.328125 -9.0625 L 27.09375 -9.0625 C 26.6875 -7.257812 25.898438 -5.648438 24.734375 -4.234375 C 23.566406 -2.816406 22.09375 -1.703125 20.3125 -0.890625 C 18.539062 -0.078125 16.582031 0.328125 14.4375 0.328125 C 11.851562 0.328125 9.554688 -0.210938 7.546875 -1.296875 C 5.535156 -2.390625 3.960938 -3.945312 2.828125 -5.96875 C 1.691406 -8 1.125 -10.382812 1.125 -13.125 C 1.125 -15.863281 1.679688 -18.238281 2.796875 -20.25 C 3.921875 -22.257812 5.488281 -23.804688 7.5 -24.890625 C 9.507812 -25.984375 11.820312 -26.53125 14.4375 -26.53125 C 17.019531 -26.53125 19.304688 -26 21.296875 -24.9375 C 23.296875 -23.882812 24.851562 -22.367188 25.96875 -20.390625 C 27.09375 -18.410156 27.65625 -16.082031 27.65625 -13.40625 Z M 18.3125 -15.703125 C 18.3125 -16.816406 17.9375 -17.691406 17.1875 -18.328125 C 16.445312 -18.972656 15.515625 -19.296875 14.390625 -19.296875 C 13.265625 -19.296875 12.34375 -18.988281 11.625 -18.375 C 10.914062 -17.769531 10.453125 -16.878906 10.234375 -15.703125 Z M 18.3125 -15.703125 "/></g></g></g></svg>