<svg width="69" height="64" viewBox="0 0 69 64" fill="none" xmlns="http://www.w3.org/2000/svg">
<g filter="url(#filter0_d_300_50)">
<path d="M45.9167 35.5243L52.8577 28.5141C53.6034 27.7914 54.4476 27.4376 55.3901 27.4528C56.3327 27.4685 57.1629 27.8384 57.8807 28.5625C58.6269 29.2991 59 30.1592 59 31.143C59 32.1268 58.6269 32.98 57.8807 33.7028L44.8207 46.8703C44.4655 47.2212 44.057 47.4973 43.5953 47.6984C43.1336 47.8995 42.6783 48 42.2294 48C41.7801 48 41.3277 47.8995 40.8725 47.6984C40.4176 47.4973 40.0135 47.2212 39.66 46.8703L26.7137 33.7948C25.9986 33.061 25.6333 32.1934 25.6177 31.1921C25.6027 30.1908 25.9573 29.3228 26.6815 28.5881C27.4053 27.8419 28.2616 27.4775 29.2502 27.495C30.2385 27.513 31.0904 27.8834 31.8059 28.6061L38.7469 35.5707L38.7469 11.2877L13.6304 11.2877C12.6372 11.2877 11.7839 10.9351 11.0706 10.2299C10.3569 9.52514 10 8.66935 10 7.66252C10 6.65614 10.3569 5.79413 11.0706 5.07648C11.7839 4.35883 12.6372 4 13.6304 4L38.7469 4C40.7334 4 42.4249 4.70174 43.8213 6.10522C45.2183 7.5087 45.9167 9.23618 45.9167 11.2877L45.9167 35.5243Z" fill="url(#paint0_linear_300_50)"/>
</g>
<defs>
<filter id="filter0_d_300_50" x="0" y="0" width="69" height="64" filterUnits="userSpaceOnUse" color-interpolation-filters="sRGB">
<feFlood flood-opacity="0" result="BackgroundImageFix"/>
<feColorMatrix in="SourceAlpha" type="matrix" values="0 0 0 0 0 0 0 0 0 0 0 0 0 0 0 0 0 0 127 0" result="hardAlpha"/>
<feOffset dy="6"/>
<feGaussianBlur stdDeviation="5"/>
<feComposite in2="hardAlpha" operator="out"/>
<feColorMatrix type="matrix" values="0 0 0 0 0 0 0 0 0 0 0 0 0 0 0 0 0 0 0.25 0"/>
<feBlend mode="normal" in2="BackgroundImageFix" result="effect1_dropShadow_300_50"/>
<feBlend mode="normal" in="SourceGraphic" in2="effect1_dropShadow_300_50" result="shape"/>
</filter>
<linearGradient id="paint0_linear_300_50" x1="21.5" y1="8" x2="41.2155" y2="12.5464" gradientUnits="userSpaceOnUse">
<stop stop-color="#5FB7E9"/>
</linearGradient>
</defs>
</svg>
